<svg width="114" height="60" viewBox="0 0 114 60" fill="none" xmlns="http://www.w3.org/2000/svg">
<g clip-path="url(#clip0_2144_1029)">
<path d="M93.3516 49.8121C93.9697 49.8099 94.5847 49.9006 95.1758 50.0816C95.6877 50.2196 96.1634 50.4635 96.5693 50.7955L96.6592 52.8716L95.2646 52.9918L95.123 51.7173C94.848 51.5657 94.5527 51.4538 94.2461 51.3853C93.9656 51.3252 93.6795 51.2939 93.3926 51.2935C92.9678 51.2787 92.5461 51.3772 92.1719 51.5787C92.01 51.6882 91.8797 51.8382 91.793 52.0132C91.7063 52.1882 91.6659 52.3827 91.6768 52.5777C91.7008 52.9697 91.933 53.3232 92.29 53.5132C92.726 53.7002 93.1815 53.8458 93.6475 53.9468C94.0744 54.0328 94.5606 54.1592 95.1055 54.3072C95.6433 54.4572 96.1334 54.7368 96.5283 55.1197C96.9683 55.6146 97.1858 56.2598 97.1318 56.9097C97.1547 57.3434 97.0706 57.7765 96.8857 58.1695C96.7008 58.5625 96.421 58.9037 96.0723 59.1627C95.2486 59.7241 94.2641 60.0014 93.2686 59.9527C92.5953 59.9548 91.9241 59.8739 91.2705 59.7125C90.7156 59.5898 90.1922 59.3523 89.7354 59.0142L90.0205 56.7271L91.418 56.8638L91.3828 58.0757C91.6818 58.2317 92.003 58.3419 92.3369 58.4019C92.6039 58.4459 92.8736 58.4692 93.1436 58.4712C93.6638 58.4896 94.1817 58.3938 94.6611 58.191C95.0811 57.961 95.3159 57.5084 95.2529 57.0464C95.2809 56.7942 95.2297 56.5393 95.1055 56.3179C94.9812 56.0965 94.7905 55.9197 94.5605 55.8121C94.0539 55.5899 93.5222 55.4283 92.9775 55.3316C92.4834 55.2376 91.9939 55.1177 91.5127 54.9712C91.0448 54.8332 90.6231 54.5697 90.293 54.2105C89.9391 53.7702 89.7647 53.2123 89.8057 52.649C89.78 52.2222 89.8696 51.7957 90.0635 51.4146C90.2574 51.0337 90.5492 50.7115 90.9092 50.481C91.6438 50.0323 92.4908 49.8004 93.3516 49.8121Z" fill="#E1EDF9"/>
<path d="M12.9512 51.396H11.665V58.3619H12.8506V59.8043H8.88965V58.3619H9.90039L9.83496 53.65L6.87109 59.106H6.10645L2.96484 53.5132H2.90527V58.3628H3.97168V59.8033H0.124023V58.3628H1.30957V51.396H0V49.9556H2.76172L6.51953 56.6636H6.58008L10.1357 49.9546H12.916L12.9512 51.396Z" fill="#E1EDF9"/>
<path d="M18.5879 51.396H17.4033V58.3619H18.5879V59.8043H14.5039V58.3619H15.6895V51.396H14.5039V49.9556H18.5879V51.396Z" fill="#E1EDF9"/>
<path d="M24.1895 51.396H23.1699V54.1187H24.5996L26.7217 51.396H25.7139V49.9556H29.7041V51.396H28.5586L25.9326 54.6509L28.7959 58.3619H29.8926V59.8043H25.7422V58.3619H26.7979L24.5977 55.5025H23.1699V58.3619H24.1475V59.8043H20.2539V58.3619H21.4385V51.396H20.2539V49.9556H24.1895V51.396Z" fill="#E1EDF9"/>
<path d="M39.0137 52.815L37.5205 52.9351L37.2061 51.4078H33.958V54.1304H38.4453V55.5709H33.958V58.3736H37.3428L37.6572 56.8414L39.1445 56.9673L38.8066 59.8043H31.0361V58.3619H32.2207V51.396H31.0361V49.9556H38.7002L39.0137 52.815Z" fill="#E1EDF9"/>
<path d="M52.1094 56.4693H52.1621V51.396H50.6797V49.9556H54.9775V51.396H53.79V59.8043H52.7832L47.1455 52.9859H47.0801V58.3619H48.6035V59.8043H44.3184V58.3619H45.4502V51.396H44.1602V49.9556H46.7197L52.1094 56.4693Z" fill="#E1EDF9"/>
<path d="M60.5537 51.396H59.3701V58.3619H60.5547V59.8043H56.4697V58.3619H57.6562V51.396H56.4697V49.9556H60.5537V51.396Z" fill="#E1EDF9"/>
<path d="M70.0342 50.7554L64.4785 58.3345H68.5098L68.8721 56.4117L70.3652 56.5611L70.0039 59.8043H62.0303L61.9834 58.9058L67.4893 51.396H64.0996L63.7383 53.1119L62.2383 52.9693L62.5879 49.9546H70.0039L70.0342 50.7554Z" fill="#E1EDF9"/>
<path d="M75.8711 51.396H74.6855V58.3619H75.8711V59.8043H71.7871V58.3619H72.9717V51.396H71.7871V49.9556H75.8711V51.396Z" fill="#E1EDF9"/>
<path d="M85.3555 56.4693H85.4199V51.396H83.9258V49.9556H88.2295V51.396H87.0439V59.8043H86.0361L80.3223 52.9752V58.3511H81.7979V59.7916H77.5479V58.3511H78.6748V51.396H77.4121V49.9556H79.9717L85.3555 56.4693Z" fill="#E1EDF9"/>
<path d="M102.669 51.396H101.649V54.1187H103.078L105.2 51.396H104.192V49.9556H108.182V51.396H107.032L104.412 54.6509L107.268 58.3619H108.371L108.359 59.8043H104.209V58.3619H105.259L103.059 55.5025H101.649V58.3619H102.621V59.8043H98.7275V58.3619H99.9121V51.396H98.7275V49.9556H102.669V51.396Z" fill="#E1EDF9"/>
<path d="M113.587 51.396H112.401V58.3619H113.587V59.8043H109.503V58.3619H110.688V51.396H109.503V49.9556H113.587V51.396Z" fill="#E1EDF9"/>
<path d="M89.243 15.183L74.23 0.724995C73.855 0.375641 73.3615 0.181396 72.849 0.181396C72.3365 0.181396 71.843 0.375641 71.468 0.724995L41.238 29.893L28.968 18.054C28.8586 17.9493 28.7714 17.8236 28.7118 17.6844C28.6522 17.5452 28.6213 17.3954 28.621 17.244C28.621 16.941 28.746 16.65 28.968 16.436L41.279 4.55599L46.952 10.042C47.703 10.762 48.916 10.762 49.667 10.042C49.8439 9.87274 49.9847 9.66941 50.0809 9.44426C50.1771 9.21912 50.2267 8.97683 50.2267 8.73199C50.2267 8.48716 50.1771 8.24487 50.0809 8.01972C49.9847 7.79458 49.8439 7.59125 49.667 7.42199L42.677 0.724995C42.2881 0.375174 41.7836 0.181622 41.2605 0.181622C40.7374 0.181622 40.2329 0.375174 39.844 0.724995L24.842 15.183C24.5624 15.4488 24.3398 15.7686 24.1877 16.1231C24.0356 16.4776 23.9572 16.8593 23.9572 17.245C23.9572 17.6307 24.0356 18.0124 24.1877 18.3669C24.3398 18.7214 24.5624 19.0412 24.842 19.307L39.862 33.793C40.312 34.232 40.96 34.423 41.587 34.302C41.9616 34.2332 42.3078 34.0563 42.583 33.793L72.848 4.59099L85.118 16.436C85.34 16.65 85.465 16.941 85.465 17.245C85.465 17.548 85.34 17.839 85.118 18.054L72.908 29.847L67.264 24.397C67.0199 24.1656 66.7207 24.0004 66.3948 23.9171C66.069 23.8338 65.7272 23.8351 65.402 23.921C65.08 24.0025 64.7851 24.1672 64.5469 24.3988C64.3087 24.6303 64.1356 24.9204 64.045 25.24C63.9591 25.5565 63.9606 25.8904 64.0493 26.2061C64.1381 26.5218 64.3108 26.8076 64.549 27.033L71.271 33.519C71.34 33.625 71.421 33.723 71.514 33.81C71.874 34.159 72.362 34.355 72.872 34.355C73.382 34.355 73.87 34.159 74.229 33.81L89.243 19.324C89.5242 19.0573 89.7485 18.7364 89.9021 18.3806C90.0558 18.0248 90.1357 17.6415 90.137 17.254C90.137 16.476 89.815 15.731 89.243 15.183V15.183Z" fill="url(#paint0_linear_2144_1029)"/>
</g>
<defs>
<linearGradient id="paint0_linear_2144_1029" x1="24.619" y1="16.8923" x2="88.6811" y2="16.8923" gradientUnits="userSpaceOnUse">
<stop offset="0.5" stop-color="#00C4EA"/>
<stop offset="0.5" stop-color="#00A3C4"/>
</linearGradient>
<clipPath id="clip0_2144_1029">
<rect width="113.587" height="60" fill="white"/>
</clipPath>
</defs>
</svg>
